<?xml version="1.0" encoding="utf-8"?>
<!-- Generator: Adobe Illustrator 23.0.1, SVG Export Plug-In . SVG Version: 6.00 Build 0)  -->
<svg version="1.1" id="Слой_1" xmlns="http://www.w3.org/2000/svg" xmlns:xlink="http://www.w3.org/1999/xlink" x="0px" y="0px"
	 viewBox="0 0 50 50" style="enable-background:new 0 0 50 50;" xml:space="preserve">
<style type="text/css">
	.st0{fill:#F9DBD2;}
	.st1{fill:#DD2828;}
	.st2{fill:#18A826;}
	.st3{fill:#EDED1B;}
	.st4{fill:#E2444C;}
	.st5{fill:#FFFFFF;}
	.st6{fill:#FC606F;}
</style>
<g>
	<circle class="st0" cx="25" cy="25" r="25"/>
	<circle class="st1" cx="34" cy="30.5" r="0.9"/>
	<circle class="st2" cx="39.4" cy="30.5" r="0.9"/>
	<circle class="st3" cx="45" cy="4" r="3"/>
	<circle class="st3" cx="5.5" cy="44.5" r="2.5"/>
	<circle class="st4" cx="9.5" cy="47.5" r="1.5"/>
	<circle class="st4" cx="2.5" cy="9.5" r="1.5"/>
	<circle class="st5" cx="46" cy="35" r="2"/>
	<circle class="st5" cx="37.5" cy="42.5" r="1.5"/>
	<circle class="st3" cx="45" cy="42" r="1"/>
	<circle class="st3" cx="47.5" cy="11.5" r="0.5"/>
	<g>
		<path class="st6" d="M22.1,37.2l2.9-7.9l-0.9-1.9h1.8L25,29.2l2.9,7.9l-1.8,2.5c3.7-0.6,9.6-3.9,12.4-3.9l-1-4.3
			c-0.3-0.3-0.7-0.6-1.1-0.8c-2.1-1.1-4.3-2-6.5-2.8c-0.2-0.1-0.4-0.2-0.4-0.3c-0.2-0.4-0.3-0.8-0.4-1.2C29,26,29,25.8,28.7,25.7
			c-0.1,0-0.1-0.2-0.1-0.3c0-1-0.2-2,0.5-2.8c0,0,0-0.1,0-0.1c0.4-0.8,0.5-1.8,1-2.6c0,0,0,0,0-0.1c0.1-0.6,0.1-1.2,0.2-1.8
			c0-0.1-0.1-0.2-0.1-0.2c-0.3-0.1-0.3-0.3-0.3-0.6c0-1.2,0-1.3,0-2.5c0-0.7-0.2-1.3-0.7-1.7c-0.6-0.5-1.2-1-1.8-1.5
			c-0.3-0.2-0.3-0.4,0-0.7c0.1-0.1,0.3-0.2,0.4-0.3c0,0-0.1-0.1-0.1-0.1c-0.2,0-0.4,0-0.5,0c-0.7,0.1-1.3,0.2-2,0.4
			c-1.2,0.3-2.5,0.7-3.5,1.5c-0.7,0.6-1.2,1.2-1.3,2.2c0,0.5,0,1,0,1.5c0,0.8,0,0.6,0,1.4c0,0.1-0.1,0.3-0.2,0.4
			c-0.3,0.1-0.3,0.3-0.3,0.6c0,0.2,0,0.4,0,0.6c0.1,0.5,0.2,1,0.4,1.5c0.1,0.4,0.3,0.7,0.4,1.1c0.1,0.7,0.4,1.4,0.9,2
			c0.1,0.1,0.1,0.3,0.1,0.4c0,0.6-0.1,1.1-0.2,1.7c0,0.1-0.1,0.3-0.2,0.3c-0.4,0.1-0.4,0.4-0.5,0.7c-0.1,0.4-0.2,0.8-0.4,1.2
			c0,0.1-0.2,0.2-0.3,0.3c-0.7,0.3-1.4,0.6-2.1,0.9c-0.7,0.3-1.5,0.6-2.2,0.9c-0.7,0.4-1.4,0.7-2.2,1.1c-0.4,0.2-0.8,0.5-1.1,0.8
			l-1,4.3c4.9,0,7.4,3.5,12.5,4L22.1,37.2z M29.7,33H34v0.8h-4.2C29.7,33.7,29.7,33,29.7,33z"/>
	</g>
</g>
</svg>
