<?xml version="1.0" encoding="utf-8"?>
<!-- Generator: Adobe Illustrator 23.0.1, SVG Export Plug-In . SVG Version: 6.00 Build 0)  -->
<svg version="1.1" id="Слой_1" xmlns="http://www.w3.org/2000/svg" xmlns:xlink="http://www.w3.org/1999/xlink" x="0px" y="0px"
	 viewBox="0 0 50 50" style="enable-background:new 0 0 50 50;" xml:space="preserve">
<style type="text/css">
	.st0{fill:#68BCBC;}
	.st1{fill:#EBF752;}
	.st2{fill:#FFFFFF;}
</style>
<circle class="st0" cx="25" cy="25" r="22.5"/>
<circle class="st1" cx="43.5" cy="4.5" r="2"/>
<circle class="st0" cx="46" cy="8" r="1"/>
<circle class="st0" cx="7.5" cy="46.5" r="1.5"/>
<circle class="st0" cx="3.5" cy="7.5" r="1.5"/>
<circle class="st1" cx="40.5" cy="4.5" r="0.5"/>
<circle class="st1" cx="44.5" cy="42.5" r="1.5"/>
<circle class="st1" cx="5.5" cy="32.5" r="2.5"/>
<circle class="st2" cx="7.5" cy="26.5" r="1.5"/>
<circle class="st1" cx="9" cy="36" r="1"/>
<g>
	<g>
		<g>
			<path class="st1" d="M27.6,11.8L25,13.2l-2.6-1.4c-0.5-0.3-1.1,0.2-0.9,0.8l1.4,4.8c0.7-0.2,1.4-0.3,2.1-0.3
				c0.7,0,1.4,0.1,2.1,0.3l1.4-4.7C28.7,12,28.1,11.5,27.6,11.8z"/>
			<path class="st1" d="M35.2,31.4c0-5.6-4.6-13.6-10.2-13.6s-10.2,8-10.2,13.6c0,5.6,4.6,6.9,10.2,6.9
				C30.6,38.3,35.2,37.1,35.2,31.4z M25.9,32.9v1c0,0.3-0.3,0.6-0.6,0.6h-0.5c-0.3,0-0.6-0.3-0.6-0.6V33c-0.7-0.1-1.5-0.3-2.2-0.8
				c-0.3-0.2-0.3-0.5-0.2-0.8l0.5-0.8c0.2-0.3,0.5-0.3,0.8-0.2c0.6,0.4,1.1,0.5,1.6,0.5c0.7,0,1-0.3,1-0.8c0-1.2-3.9-1.4-3.9-4
				c0-1.5,0.9-2.6,2.3-2.9v-1c0-0.3,0.3-0.6,0.6-0.6h0.6c0.3,0,0.6,0.3,0.6,0.6v1c0.7,0.1,1.3,0.4,1.8,0.9c0.2,0.2,0.3,0.6,0.1,0.8
				l-0.6,0.7c-0.2,0.2-0.5,0.3-0.7,0.1c-0.4-0.3-0.7-0.4-1.2-0.4c-0.6,0-1,0.2-1,0.8c0,1.1,3.9,1.2,3.9,3.9
				C28.2,31.4,27.5,32.6,25.9,32.9z"/>
		</g>
	</g>
</g>
</svg>
