<?xml version="1.0" encoding="utf-8"?>
<!-- Generator: Adobe Illustrator 23.0.0, SVG Export Plug-In . SVG Version: 6.00 Build 0)  -->
<svg version="1.1" xmlns="http://www.w3.org/2000/svg" xmlns:xlink="http://www.w3.org/1999/xlink" x="0px" y="0px"
	 viewBox="0 0 50 50" style="enable-background:new 0 0 50 50;" xml:space="preserve">
<style type="text/css">
	.st0{fill:#F9DBD2;}
	.st1{fill:#CCCCCC;}
	.st2{fill:#5DCEC8;}
	.st3{fill:#3A2422;}
	.st4{fill:none;stroke:#6D352C;stroke-linecap:round;stroke-linejoin:bevel;stroke-miterlimit:10;}
	.st5{fill:#56D18E;}
	.st6{fill:#DD2828;}
	.st7{fill:#C4BC20;}
	.st8{fill:#18A826;}
	.st9{fill:#CCCCCC;stroke:#6D352C;stroke-linecap:round;stroke-linejoin:bevel;stroke-miterlimit:10;}
	.st10{fill:#CCCCCC;stroke:#6D352C;stroke-linecap:square;stroke-linejoin:round;stroke-miterlimit:10;}
	.st11{fill:#EDED1B;}
	.st12{fill:#E2444C;}
	.st13{fill:#FFFFFF;}
</style>
<g id="Слой_1">
</g>
<g id="Слой_2">
	<circle class="st0" cx="25" cy="25" r="25"/>
	<path class="st1" d="M39.2,34.16H11.8c-3.19,0-5.8-2.61-5.8-5.8v0c0-0.29,0.24-0.53,0.53-0.53h37.95c0.29,0,0.53,0.24,0.53,0.53v0
		C45,31.55,42.39,34.16,39.2,34.16z"/>
	<path class="st1" d="M11.72,9.75h27.55c2.9,0,5.27,2.37,5.27,5.27v1.05H6.45v-1.05C6.45,12.12,8.82,9.75,11.72,9.75z"/>
	<g>
		<path class="st2" d="M7.14,28.41c-0.53,0-0.96-0.43-0.96-0.96V16.46c0-0.53,0.43-0.96,0.96-0.96h37.03c0.53,0,0.96,0.43,0.96,0.96
			v10.99c0,0.53-0.43,0.96-0.96,0.96H7.14z"/>
		<path class="st3" d="M44.17,15.63c0.46,0,0.83,0.37,0.83,0.83v10.99c0,0.46-0.37,0.83-0.83,0.83H7.14c-0.46,0-0.83-0.37-0.83-0.83
			V16.46c0-0.46,0.37-0.83,0.83-0.83H44.17 M44.17,15.38H7.14c-0.6,0-1.08,0.49-1.08,1.08v10.99c0,0.6,0.49,1.08,1.08,1.08h37.03
			c0.6,0,1.08-0.49,1.08-1.08V16.46C45.25,15.86,44.76,15.38,44.17,15.38L44.17,15.38z"/>
	</g>
	<path class="st4" d="M37.86,34.16H12.99c-3.85,0-7-3.15-7-7V16.75c0-3.85,3.15-7,7-7h24.87c3.85,0,7,3.15,7,7v10.41
		C44.86,31.01,41.71,34.16,37.86,34.16z"/>
	<g>
		<path class="st5" d="M23.12,26.73c-0.04,0-0.09-0.01-0.13-0.03c-0.08-0.04-0.13-0.13-0.13-0.22v-8.92c0-0.09,0.05-0.17,0.13-0.22
			c0.04-0.02,0.08-0.03,0.13-0.03s0.09,0.01,0.13,0.03l7.73,4.46c0.08,0.04,0.13,0.13,0.13,0.22s-0.05,0.17-0.13,0.22l-7.73,4.46
			C23.2,26.71,23.16,26.73,23.12,26.73z"/>
		<path class="st3" d="M23.12,17.56l7.73,4.46l-7.73,4.46V17.56 M23.12,17.06c-0.09,0-0.17,0.02-0.25,0.07
			c-0.15,0.09-0.25,0.25-0.25,0.43v8.92c0,0.18,0.1,0.34,0.25,0.43c0.08,0.04,0.16,0.07,0.25,0.07c0.09,0,0.17-0.02,0.25-0.07
			l7.73-4.46c0.15-0.09,0.25-0.25,0.25-0.43s-0.1-0.34-0.25-0.43l-7.73-4.46C23.29,17.08,23.2,17.06,23.12,17.06L23.12,17.06z"/>
	</g>
	<circle class="st6" cx="34.02" cy="30.54" r="0.9"/>
	<circle class="st7" cx="36.73" cy="30.54" r="0.9"/>
	<circle class="st8" cx="39.44" cy="30.54" r="0.9"/>
	<rect x="22.26" y="34.16" class="st9" width="5.42" height="3.62"/>
	<path class="st10" d="M33.56,42.75H16.39V42c0-2.08,1.69-3.77,3.77-3.77h9.64c2.08,0,3.77,1.69,3.77,3.77V42.75z"/>
	<circle class="st11" cx="45" cy="4" r="3"/>
	<circle class="st11" cx="5.5" cy="44.5" r="2.5"/>
	<circle class="st12" cx="9.5" cy="47.5" r="1.5"/>
	<circle class="st12" cx="2.5" cy="9.5" r="1.5"/>
	<circle class="st13" cx="46" cy="35" r="2"/>
	<circle class="st13" cx="37.5" cy="42.5" r="1.5"/>
	<circle class="st11" cx="45" cy="42" r="1"/>
	<circle class="st11" cx="47.5" cy="11.5" r="0.5"/>
</g>
</svg>
